<?xml version="1.0" encoding="utf-8"?>
<!-- Generator: Adobe Illustrator 26.0.2, SVG Export Plug-In . SVG Version: 6.00 Build 0)  -->
<svg version="1.1" id="Layer_1" xmlns="http://www.w3.org/2000/svg" xmlns:xlink="http://www.w3.org/1999/xlink" x="0px" y="0px"
	 viewBox="0 0 139 45.5" style="enable-background:new 0 0 139 45.5;" xml:space="preserve">
<style type="text/css">
	.st0{clip-path:url(#SVGID_00000018917876195260402520000005748518293880870530_);}
	.st1{fill:none;}
	.st2{clip-path:url(#SVGID_00000025425626304106320340000017005582791703343272_);fill:#262B2C;}
</style>
<g>
	<g>
		<defs>
			<circle id="SVGID_1_" cx="69.5" cy="22.7" r="22.6"/>
		</defs>
		<clipPath id="SVGID_00000032645932809857337240000008427705405793770629_">
			<use xlink:href="#SVGID_1_"  style="overflow:visible;"/>
		</clipPath>
		<g style="clip-path:url(#SVGID_00000032645932809857337240000008427705405793770629_);">
			<path class="st1" d="M69.5,43.9c-11.7,0-21.1-9.4-21.1-21.1S57.8,1.6,69.5,1.6S90.6,11,90.6,22.7S81.2,43.9,69.5,43.9z"/>
		</g>
	</g>
	<g>
		<defs>
			<circle id="SVGID_00000022543879971405698740000016011078228871955366_" cx="69.5" cy="22.7" r="22.6"/>
		</defs>
		<clipPath id="SVGID_00000016077218676729923740000002435531224363543721_">
			<use xlink:href="#SVGID_00000022543879971405698740000016011078228871955366_"  style="overflow:visible;"/>
		</clipPath>
		<path style="clip-path:url(#SVGID_00000016077218676729923740000002435531224363543721_);fill:#262B2C;" d="M97.3,23.5
			c0-0.5,0-1,0-1.5h-5.2c-0.1-2.8-0.7-5.5-1.7-8.1c-1.1-2.7-2.8-5.1-4.9-7.2c-2.1-2.1-4.5-3.7-7.2-4.9c-2.8-1.2-5.7-1.8-8.8-1.8
			s-6,0.6-8.8,1.8c-2.7,1.1-5.1,2.8-7.2,4.9s-3.7,4.5-4.9,7.2c-1.1,2.6-1.6,5.3-1.7,8.1h-5.2c0,0.5,0.1,1,0.1,1.5h5.1
			c0.1,2.8,0.7,5.5,1.7,8.1c1.1,2.7,2.8,5.1,4.9,7.2c2.1,2.1,4.5,3.7,7.2,4.9c2.8,1.2,5.7,1.8,8.8,1.8s6-0.6,8.8-1.8
			c2.7-1.1,5.1-2.8,7.2-4.9c2.1-2.1,3.7-4.5,4.9-7.2c1-2.6,1.6-5.3,1.7-8.1C92.1,23.5,97.3,23.5,97.3,23.5z M50.1,14.5
			c1-2.5,2.6-4.8,4.5-6.7s4.2-3.5,6.7-4.5c2.6-1.1,5.4-1.6,8.2-1.6s5.6,0.5,8.2,1.6c2.5,1,4.8,2.6,6.7,4.5s3.5,4.2,4.5,6.7
			c1,2.3,1.6,4.9,1.6,7.5H79.2c-0.2-2.3-1.1-4.4-2.8-6.1c-1.8-1.8-4.2-2.9-6.8-2.9c-2.6,0-5,1-6.8,2.9c-1.6,1.6-2.6,3.7-2.8,6.1
			H48.4C48.5,19.5,49.1,16.9,50.1,14.5z M68.4,23.5c0.3,0.4,0.7,0.7,1.2,0.7s1-0.3,1.2-0.7h6.8c-0.3,4.1-3.8,7.3-8,7.3
			c-4.2,0-7.6-3.2-8-7.3H68.4z M61.7,22.1c0.4-4.1,3.8-7.2,8-7.2c4.2,0,7.5,3.2,8,7.2H71c-0.3-0.4-0.7-0.7-1.2-0.7
			c-0.5,0-1,0.3-1.2,0.7H61.7z M89,31c-1,2.5-2.6,4.8-4.5,6.7c-1.9,1.9-4.2,3.5-6.7,4.5c-2.6,1.1-5.4,1.6-8.2,1.6s-5.6-0.5-8.2-1.6
			c-2.5-1-4.8-2.6-6.7-4.5c-1.9-1.9-3.5-4.2-4.5-6.7c-1-2.3-1.6-4.9-1.6-7.5h11.5c0.2,2.3,1.1,4.4,2.8,6.2c1.8,1.8,4.2,2.9,6.8,2.9
			c2.6,0,5-1,6.8-2.9c1.6-1.6,2.6-3.8,2.8-6.2h11.4C90.6,26,89.9,28.5,89,31z"/>
	</g>
</g>
</svg>
